<svg xmlns="http://www.w3.org/2000/svg" version="1.1" xmlns:xlink="http://www.w3.org/1999/xlink" width="1000" height="1000"><g clip-path="url(#SvgjsClipPath1111)"><rect width="1000" height="1000" fill="#96c03d"></rect><g transform="matrix(2.272727272727273,0,0,2.272727272727273,99.99999999999994,145.45454545454544)"><svg xmlns="http://www.w3.org/2000/svg" width="352" height="312" viewBox="0 0 352 312" fill="none"><path fill-rule="evenodd" clip-rule="evenodd" d="M252.751 135.868L199.452 189.167H187.381L240.68 135.868H252.751ZM232.632 135.868L179.333 189.167H167.259L220.559 135.868H232.632ZM212.511 135.868L159.211 189.167H146.8L200.099 135.868H212.511ZM192.051 135.868L138.752 189.167H132.085L104.781 162.517L132.085 135.868H192.051Z" fill="black"></path><path fill-rule="evenodd" clip-rule="evenodd" d="M261.184 135.483L207.5 189.167H236.35V208.39C231.107 217.418 224.699 225.427 217.127 232.417C209.554 239.407 200.963 244.941 191.352 249.018C181.74 252.804 171.255 254.698 159.896 254.698C141.547 254.698 125.529 250.62 111.84 242.466C98.1515 234.019 87.5209 222.515 79.9484 207.952C77.2408 202.641 75.019 197.013 73.2795 191.069L44.445 162.517L69.9114 137.299C71.6136 125.743 74.9596 115.072 79.9484 105.286C87.8121 90.4329 98.4429 78.7835 111.84 70.3373C125.529 61.5999 140.819 57.2308 157.712 57.2307C173.73 57.2307 188.148 60.8707 200.963 68.152C214.069 75.142 224.845 86.3557 233.291 101.792L295.764 85.1911C289.065 67.1336 278.726 51.8424 264.746 39.3186C250.766 26.5037 234.311 16.7469 215.379 10.0482C196.739 3.34944 176.789 0 155.527 0C132.81 2.48454e-05 111.985 3.78583 93.0539 11.3583C74.1228 18.9308 57.667 29.7072 43.6871 43.6871C29.9984 57.6671 19.222 74.2685 11.3583 93.491C3.78579 112.422 0 133.247 0 155.964C0 178.682 3.78579 199.652 11.3583 218.875C19.222 237.806 30.1442 254.262 44.1242 268.242C58.1041 282.222 74.5598 292.998 93.491 300.57C112.422 308.143 133.247 311.929 155.964 311.929C180.138 311.929 201.691 307.705 220.622 299.259C226.369 296.607 231.86 293.727 237.097 290.618V311.929H299.821V191.77H351.191L321.649 162.517L348.951 135.483H261.184Z" fill="black"></path></svg></g></g><defs><clipPath id="SvgjsClipPath1111"><rect width="1000" height="1000" x="0" y="0" rx="0" ry="0"></rect></clipPath></defs></svg>