<svg xmlns="http://www.w3.org/2000/svg" version="1.1" xmlns:xlink="http://www.w3.org/1999/xlink" width="351" height="340"><svg width="351" height="340" viewBox="0 0 351 340" fill="none" xmlns="http://www.w3.org/2000/svg">
<path fill-rule="evenodd" clip-rule="evenodd" d="M220.809 118.697L174.246 165.261H163.7L210.264 118.697H220.809ZM203.233 118.697L156.669 165.261H146.121L192.685 118.697H203.233ZM185.654 118.697L139.09 165.261H128.247L174.811 118.697H185.654ZM167.78 118.697L121.216 165.261H115.393L91.5391 141.979L115.393 118.697H167.78Z" fill="black"></path>
<path fill-rule="evenodd" clip-rule="evenodd" d="M228.176 118.361L181.277 165.261H206.48V182.054C201.9 189.941 196.302 196.938 189.687 203.045C183.071 209.151 175.565 213.986 167.169 217.548C158.772 220.856 149.612 222.51 139.688 222.51C123.659 222.51 109.665 218.948 97.7061 211.823C85.7473 204.444 76.4602 194.394 69.8447 181.672C67.4792 177.032 65.5382 172.115 64.0186 166.922L38.8281 141.979L61.0762 119.947C62.5632 109.852 65.4864 100.53 69.8447 91.9805C76.7146 79.0042 86.0019 68.827 97.7061 61.4482C109.665 53.815 123.023 49.9981 137.78 49.998C151.775 49.998 164.37 53.178 175.565 59.5391C187.015 65.6457 196.43 75.4423 203.809 88.9277L258.386 74.4248C252.534 58.6494 243.501 45.2906 231.288 34.3496C219.075 23.1542 204.699 14.6305 188.16 8.77832C171.876 2.92615 154.446 0 135.872 0C116.026 2.17055e-05 97.8326 3.30738 81.2939 9.92285C64.7553 16.5384 50.3792 25.9528 38.166 38.166C26.2072 50.3792 16.7928 64.8826 9.92285 81.6758C3.30735 98.2145 0 116.407 0 136.254C0 156.1 3.30735 174.421 9.92285 191.214C16.7928 207.753 26.3347 222.129 38.5479 234.342C50.7611 246.555 65.1371 255.969 81.6758 262.585C98.2145 269.2 116.407 272.508 136.254 272.508C157.373 272.508 176.201 268.818 192.74 261.439C197.761 259.122 202.558 256.606 207.133 253.89V339.448H261.93V167.534H350.809L325 141.979L348.852 118.361H228.176Z" fill="black"></path>
</svg><style>@media (prefers-color-scheme: light) { :root { filter: none; } }
@media (prefers-color-scheme: dark) { :root { filter: none; } }
</style></svg>