<svg width="873" height="110" viewBox="0 0 873 110" fill="none" xmlns="http://www.w3.org/2000/svg">
<path d="M780.892 1.32471H804.691V44.3149H848.756V1.32471H872.554V108.8H848.756V64.2746H804.691V108.8H780.892V1.32471Z" fill="black"/>
<path d="M667.276 55.0625C667.276 47.0786 668.606 39.76 671.267 33.1068C674.031 26.3512 677.818 20.5168 682.629 15.6036C687.44 10.6905 693.172 6.90324 699.825 4.24194C706.478 1.58065 713.695 0.25 721.474 0.25C733.04 0.25 743.122 3.06484 751.721 8.6945C760.319 14.3242 766.562 22.2057 770.452 32.3391L750.185 37.4058C748.24 33.3115 745.784 30.0361 742.815 27.5795C739.847 25.0205 736.572 23.1781 732.989 22.0522C729.407 20.8239 725.619 20.2097 721.627 20.2097C715.486 20.2097 710.112 21.7451 705.506 24.8158C700.9 27.7842 697.317 31.8785 694.758 37.0987C692.302 42.319 691.074 48.3069 691.074 55.0625C691.074 61.9205 692.302 67.9595 694.758 73.1798C697.317 78.4 700.9 82.4943 705.506 85.4627C710.112 88.4311 715.486 89.9153 721.627 89.9153C725.722 89.9153 729.611 89.3011 733.296 88.0728C737.083 86.8445 740.512 84.7974 743.583 81.9314C746.756 79.0653 749.417 75.2269 751.567 70.4161L771.527 75.0222C767.432 86.3839 761.035 95.0331 752.335 100.97C743.634 106.907 733.347 109.875 721.474 109.875C713.695 109.875 706.478 108.544 699.825 105.883C693.172 103.222 687.44 99.4857 682.629 94.6749C677.818 89.7617 674.031 83.9785 671.267 77.3253C668.606 70.5697 667.276 63.1487 667.276 55.0625Z" fill="black"/>
<path d="M662.312 21.1309H607.96V44.9291H648.647V63.814H607.96V88.994H662.312V108.8H584.162V1.32471H662.312V21.1309Z" fill="black"/>
<path d="M474.5 1.32471H588.5V21.1309H542.801V108.8H519.156V21.1309H474.5V1.32471Z" fill="black"/>
<path d="M477.886 1.32471V108.8H453.934L410.33 38.9411V108.8H386.532V1.32471H410.637L454.088 71.4908V1.32471H477.886Z" fill="black"/>
<path d="M376.962 21.1309H322.61V44.9291H363.297V63.814H322.61V88.994H393V108.8H298.812V1.32471H376.962V21.1309Z" fill="black"/>
<path d="M289.243 21.1309H234.891V44.9291H275.578V63.814H234.891V88.994H301.5V108.8H211.092V1.32471H289.243V21.1309Z" fill="black"/>
<path d="M176.851 35.4098C176.851 31.0084 175.521 27.5283 172.86 24.9693C170.301 22.4104 166.257 21.1309 160.73 21.1309H138.774V49.8422H160.73C164.415 49.8422 167.435 49.2793 169.789 48.1533C172.143 47.0274 173.883 45.3897 175.009 43.2401C176.237 40.9883 176.851 38.3782 176.851 35.4098ZM161.958 1.32471C170.659 1.32471 177.875 2.91125 183.607 6.08434C189.441 9.15506 193.792 13.3005 196.658 18.5208C199.524 23.6387 200.957 29.2683 200.957 35.4098C200.957 39.6065 200.189 43.7519 198.654 47.8462C197.221 51.8382 194.918 55.5231 191.745 58.9009C188.674 62.1763 184.631 64.7864 179.615 66.7312C174.702 68.676 168.816 69.6484 161.958 69.6484H138.774V108.8H114.976V1.32471H161.958ZM174.395 61.511L203.106 108.8H176.698L149.522 61.511H174.395Z" fill="black"/>
<path d="M70.6261 24.1995C75.2322 26.6561 79.0194 30.5968 81.9877 36.0217L103.943 30.1874C101.589 23.8413 97.9553 18.4675 93.0422 14.0662C88.1291 9.5625 82.346 6.13356 75.6928 3.77935C69.1419 1.42515 62.1305 0.248047 54.6585 0.248047C46.6747 0.248047 39.3561 1.57868 32.703 4.23995C26.0498 6.90123 20.2666 10.6884 15.3535 15.6015C10.5427 20.5147 6.75554 26.349 3.99191 33.1045C1.33063 39.7577 0 47.0762 0 55.0601C0 63.0439 1.33063 70.4136 3.99191 77.1691C6.75554 83.8223 10.5939 89.6054 15.507 94.5186C20.4202 99.4317 26.2033 103.219 32.8565 105.88C39.5097 108.541 46.8282 109.872 54.812 109.872C63.3076 109.872 70.882 108.388 77.5352 105.42C84.1884 102.349 89.8692 98.4081 94.5776 93.5974C99.286 88.6842 102.868 83.4129 105.325 77.7832V47.9974H83.6375L64.9062 66.7287H83.0625V73.4843C81.22 76.6573 78.9682 79.4721 76.3069 81.9287C73.6456 84.3852 70.6261 86.33 67.2484 87.763C63.8706 89.0937 60.1857 89.759 56.1938 89.759C49.7454 89.759 44.1157 88.326 39.305 85.46C34.4942 82.4916 30.7582 78.4486 28.0969 73.3307C27.1451 71.4637 26.3635 69.4854 25.7521 67.3958L15.6199 57.363L24.5696 48.5012C25.1677 44.4398 26.3435 40.6894 28.0969 37.25C30.8605 32.0298 34.5966 27.9355 39.305 24.9672C44.1157 21.8965 49.4895 20.3611 55.4262 20.3611C61.0558 20.3611 66.1224 21.6406 70.6261 24.1995Z" fill="black"/>
<path d="M62.0778 66.7287L80.8091 47.9974H76.5665L57.8352 66.7287H62.0778Z" fill="black"/>
<path d="M69.4952 47.9974H73.738L55.0068 66.7287H50.7639L69.4952 47.9974Z" fill="black"/>
<path d="M47.9355 66.7287L66.6667 47.9974H62.3049L43.5736 66.7287H47.9355Z" fill="black"/>
<path d="M40.86 47.9974H59.4764L40.8019 66.672L31.264 57.3631L40.86 47.9974Z" fill="black"/>
</svg>
